PathFileType	4	(X/Y/Z)	C:\Users\chris\Documents\GitHub\baseballds\vids\pitch4_Sports2D\pitch4_Sports2D_m_person00.trc
DataRate	CameraRate	NumFrames	NumMarkers	Units	OrigDataRate	OrigDataStartFrame	OrigNumFrames
30	30	7	22	m	30	29	238
Frame#	Time	Hip			RHip			RKnee			RAnkle			RBigToe			RSmallToe			RHeel			LHip			LKnee			LAnkle			LBigToe			LSmallToe			LHeel			Neck			Head			Nose			RShoulder			RElbow			RWrist			LShoulder			LElbow			LWrist		
		X1	Y1	Z1	X2	Y2	Z2	X3	Y3	Z3	X4	Y4	Z4	X5	Y5	Z5	X6	Y6	Z6	X7	Y7	Z7	X8	Y8	Z8	X9	Y9	Z9	X10	Y10	Z10	X11	Y11	Z11	X12	Y12	Z12	X13	Y13	Z13	X14	Y14	Z14	X15	Y15	Z15	X16	Y16	Z16	X17	Y17	Z17	X18	Y18	Z18	X19	Y19	Z19	X20	Y20	Z20	X21	Y21	Z21	X22	Y22	Z22
29	0.9666666666666667	0.9361776681193971	0.9096837579985159	0.0	0.9396068141388458	0.8880878633377399	0.0	0.8528291630766973	0.5004128432531917	0.0	0.577758812774377	0.16808297328885183	0.0	0.7298698859184767	0.0035270057223035414	0.0	0.6771866071073142	0.0061677192766377495	0.0	0.5055772003009166	0.1394537637725061	0.0	0.9119899162638475	0.912557075724595	0.0	0.7473601433754059	0.5801570255880757	0.0	0.5826219687751548	0.2711777105522	0.0	0.7502674973066805	0.12551163489088618	0.0	0.7301272203836413	0.15923987095128447	0.0	0.5117874538638743	0.24777595098306662	0.0	1.290449066800692	1.3814661284028278	0.0	1.4648692250227482	1.5385630077990566	0.0	1.476671574766037	1.3778226481828277	0.0	1.1866249297333136	1.344694204155662	0.0	1.0081971689490694	1.102679129909015	0.0	1.034613389995637	0.8194888234308608	0.0	1.2246333342725613	1.3288094722359833	0.0	1.0418648114300388	1.0882219015550498	0.0	1.1040170278215677	0.9390532168588758	0.0
30	1.0	0.9271171025106373	0.9109987934718938	0.0	0.9316114722421692	0.888530284027125	0.0	0.8499922860742517	0.4972612804983823	0.0	0.5698022530401136	0.16492906692807807	0.0	0.72784382281453	0.0048988406187200255	0.0	0.6774698832836611	0.005741342809809192	0.0	0.4978795529729523	0.13733132935169795	0.0	0.9061261512921186	0.9121627926659835	0.0	0.7480271450194236	0.5802784471528163	0.0	0.5778594987936695	0.26762434604194013	0.0	0.7439815045891144	0.12463266965109214	0.0	0.7256060072459365	0.1586592513491567	0.0	0.5054291733357423	0.245065068542491	0.0	1.2859449445305218	1.380963597860237	0.0	1.4599730382419778	1.5408001899220929	0.0	1.4740176075904639	1.3778952300596443	0.0	1.1834451522694998	1.3437623890442265	0.0	1.002751221504954	1.1051756573126346	0.0	1.0322022589057238	0.8222625709139049	0.0	1.2305824662241702	1.3221313943753066	0.0	1.0463029824680237	1.088294728980341	0.0	1.1397018729539399	0.9757698416590189	0.0
31	1.0333333333333332	0.9186323102258931	0.9124230692392774	0.0	0.9220998815969508	0.8912076304426811	0.0	0.849121855478216	0.49508459838655494	0.0	0.5608429063179616	0.16420072154065113	0.0	0.7220240751859897	0.009346919662209045	0.0	0.6729528677202622	0.009198814714988283	0.0	0.49078866233309454	0.13616330887418987	0.0	0.9003741916357376	0.9127658889305091	0.0	0.7487827824901342	0.578106184415549	0.0	0.5723652465325622	0.2612536340076869	0.0	0.736266952803627	0.11727086811639731	0.0	0.719757972523687	0.15072428205905072	0.0	0.49650376797629947	0.238308152404633	0.0	1.2811245298813199	1.3809876286205316	0.0	1.4569117799382885	1.540782012004722	0.0	1.4699716327343868	1.3782280067928434	0.0	1.1790207835224382	1.3426302942453296	0.0	0.9979496453821269	1.1046176019887068	0.0	1.029854727593749	0.8212079605238519	0.0	1.2337230643918993	1.3171613060219685	0.0	1.0479166349431572	1.0897478450298754	0.0	1.1405875452959415	0.9699338270855854	0.0
32	1.0666666666666667	0.9138978248217043	0.911398935272861	0.0	0.9144741579142067	0.8920969106606285	0.0	0.8498900568555958	0.4938578245457185	0.0	0.552391070077247	0.16893930869585122	0.0	0.7135984746735715	0.014442477303831731	0.0	0.6650385893793277	0.014804516458616447	0.0	0.48357840649666667	0.1396621760278653	0.0	0.8956380104276795	0.910835669319849	0.0	0.7471417756647921	0.5727573904975889	0.0	0.5660747806743899	0.2545262612130278	0.0	0.7258658469682722	0.10625120905739277	0.0	0.7115512431809903	0.1387994791117108	0.0	0.4868943815346439	0.23112702720093514	0.0	1.276731069743282	1.3816595137312029	0.0	1.455820285345561	1.5393301509426764	0.0	1.466399604338529	1.3778209399829255	0.0	1.1747318113134881	1.342752890162774	0.0	0.9934933384810314	1.1033909550232244	0.0	1.026519635933302	0.8193412526719684	0.0	1.2356939030147813	1.3141138661668974	0.0	1.0431322124288294	1.0898605760456705	0.0	1.103152364267132	0.9282299013014641	0.0
33	1.1	0.9122470976642096	0.9073640347458267	0.0	0.9097695925304283	0.8889693834066908	0.0	0.8500580215607151	0.491746209013267	0.0	0.5433494058114968	0.17745181918358796	0.0	0.7029712469350085	0.019724871246971344	0.0	0.6549218995828845	0.0219362338903664	0.0	0.47282152762129037	0.14726734213358075	0.0	0.8912496610365185	0.9053562476990488	0.0	0.7423601702158154	0.5666645969828563	0.0	0.5610825632461292	0.249808106659984	0.0	0.7145443734759037	0.09724204085635879	0.0	0.702954466245341	0.130408639772954	0.0	0.48076194925395727	0.22724306513078693	0.0	1.2728467882026198	1.3827015843354422	0.0	1.455349840940087	1.5379899061329914	0.0	1.4632609796111367	1.3762702760351924	0.0	1.1715389305896275	1.34452501275733	0.0	0.9869008942977027	1.1040792353267859	0.0	1.0213884105432696	0.8201670005614389	0.0	1.2364996362823713	1.3130979501998383	0.0	1.0322713156730725	1.0876910099637933	0.0	1.0513662318998018	0.878769420494321	0.0
34	1.1333333333333333	0.9113710319942749	0.9038864321830732	0.0	0.9061838337604955	0.8855777608243833	0.0	0.8471877964573288	0.48831636567099923	0.0	0.5317144147007035	0.1836997393383346	0.0	0.6891045633320316	0.024899406790126043	0.0	0.6420285993274846	0.029284232539202256	0.0	0.4579810621006146	0.15376733707657936	0.0	0.8890754270447273	0.8992721834983418	0.0	0.7373247512616022	0.5618655660800195	0.0	0.5604140844612421	0.24757389117774423	0.0	0.706380493604898	0.09270931276225602	0.0	0.6976442321705189	0.1289024956825107	0.0	0.48068387965370524	0.22654267288369265	0.0	1.2691850358393226	1.383200131351071	0.0	1.4540517051062327	1.5380685326329187	0.0	1.4600884115993014	1.374385172869955	0.0	1.1685695640908258	1.3452543575824694	0.0	0.9773151787479776	1.105537635824863	0.0	1.0148762046912017	0.8215443704039601	0.0	1.235253695807571	1.3120554407214626	0.0	1.0211483179391643	1.0847466050185042	0.0	1.0149547460027772	0.8488470376009424	0.0
35	1.1666666666666667	0.9101770570751953	0.9027108424437185	0.0	0.9014945007349927	0.8845887092624268	0.0	0.8415255105967517	0.4850564254730916	0.0	0.5195011839479864	0.18459136443875768	0.0	0.6750206100517336	0.02803321898475748	0.0	0.6288714620978945	0.03393040739025378	0.0	0.4436903873666407	0.1566401349808795	0.0	0.8911244801199907	0.8931459221808122	0.0	0.7349148972009125	0.5589070506872899	0.0	0.5630466376526945	0.24767008690055994	0.0	0.7029557715258478	0.09199154092837333	0.0	0.6963943754922416	0.1329660937341544	0.0	0.48407450948543407	0.22779717403430824	0.0	1.265486011669698	1.3820647071600725	0.0	1.4512600757578409	1.539827835316548	0.0	1.4571554572689036	1.3734938145383633	0.0	1.1640973414353728	1.3425349754369984	0.0	0.966586799406278	1.105613121329748	0.0	1.0083330532121724	0.8205729499092816	0.0	1.2345437291955434	1.306976578697791	0.0	1.0169297663625558	1.0805217098595674	0.0	1.0014923600728294	0.841810246008738	0.0
